<?xml version="1.0" encoding="UTF-8" standalone="no"?>
<!DOCTYPE svg PUBLIC "-//W3C//DTD SVG 1.1//EN" "http://www.w3.org/Graphics/SVG/1.1/DTD/svg11.dtd">
<svg width="100%" height="100%" viewBox="0 0 530 91" version="1.1" xmlns="http://www.w3.org/2000/svg" xmlns:xlink="http://www.w3.org/1999/xlink" xml:space="preserve" xmlns:serif="http://www.serif.com/" style="fill-rule:evenodd;clip-rule:evenodd;stroke-linejoin:round;stroke-miterlimit:2;">
    <g transform="matrix(1,0,0,1,-134.763,-178.757)">
        <g transform="matrix(96,0,0,96,132.171,248.837)">
            <path d="M0.379,0.005C0.326,0.005 0.278,-0.005 0.234,-0.025C0.192,-0.046 0.155,-0.073 0.124,-0.108C0.093,-0.142 0.069,-0.181 0.052,-0.224C0.035,-0.267 0.027,-0.311 0.027,-0.357C0.027,-0.404 0.036,-0.449 0.054,-0.492C0.071,-0.535 0.096,-0.573 0.128,-0.607C0.159,-0.64 0.197,-0.667 0.24,-0.686C0.283,-0.705 0.331,-0.715 0.382,-0.715C0.435,-0.715 0.483,-0.705 0.526,-0.685C0.569,-0.664 0.606,-0.637 0.636,-0.602C0.668,-0.567 0.691,-0.529 0.708,-0.486C0.725,-0.443 0.733,-0.399 0.733,-0.354C0.733,-0.307 0.724,-0.262 0.707,-0.219C0.69,-0.176 0.665,-0.138 0.633,-0.105C0.601,-0.071 0.564,-0.044 0.521,-0.025C0.477,-0.005 0.43,0.005 0.379,0.005ZM0.194,-0.355C0.194,-0.328 0.198,-0.301 0.206,-0.276C0.214,-0.25 0.226,-0.227 0.242,-0.207C0.257,-0.187 0.277,-0.171 0.3,-0.159C0.323,-0.147 0.35,-0.141 0.38,-0.141C0.411,-0.141 0.439,-0.147 0.462,-0.16C0.485,-0.172 0.505,-0.188 0.52,-0.209C0.535,-0.23 0.547,-0.253 0.555,-0.279C0.562,-0.304 0.566,-0.33 0.566,-0.357C0.566,-0.384 0.562,-0.411 0.554,-0.436C0.546,-0.461 0.534,-0.484 0.518,-0.504C0.502,-0.525 0.482,-0.541 0.459,-0.552C0.436,-0.563 0.409,-0.569 0.38,-0.569C0.349,-0.569 0.322,-0.563 0.299,-0.551C0.276,-0.539 0.256,-0.523 0.241,-0.502C0.225,-0.482 0.213,-0.459 0.205,-0.434C0.198,-0.408 0.194,-0.382 0.194,-0.355Z" style="fill:white;fill-rule:nonzero;"/>
        </g>
        <g transform="matrix(96,0,0,96,204.651,248.837)">
            <path d="M0.387,0.01C0.348,0.01 0.313,0.002 0.284,-0.015C0.255,-0.032 0.232,-0.055 0.215,-0.084L0.215,0.213L0.055,0.213L0.055,-0.519L0.194,-0.519L0.194,-0.433C0.213,-0.463 0.238,-0.486 0.267,-0.502C0.296,-0.519 0.331,-0.527 0.37,-0.527C0.405,-0.527 0.438,-0.52 0.468,-0.506C0.497,-0.493 0.523,-0.473 0.545,-0.449C0.567,-0.425 0.584,-0.397 0.596,-0.364C0.608,-0.332 0.614,-0.297 0.614,-0.26C0.614,-0.209 0.604,-0.163 0.585,-0.122C0.566,-0.081 0.539,-0.049 0.504,-0.025C0.47,-0.002 0.431,0.01 0.387,0.01ZM0.333,-0.125C0.35,-0.125 0.366,-0.129 0.381,-0.136C0.395,-0.144 0.407,-0.153 0.418,-0.166C0.429,-0.178 0.437,-0.192 0.443,-0.209C0.448,-0.225 0.451,-0.243 0.451,-0.261C0.451,-0.28 0.448,-0.297 0.442,-0.312C0.435,-0.328 0.426,-0.342 0.415,-0.354C0.404,-0.366 0.39,-0.375 0.375,-0.381C0.36,-0.388 0.343,-0.391 0.325,-0.391C0.314,-0.391 0.304,-0.389 0.293,-0.386C0.281,-0.383 0.271,-0.378 0.262,-0.372C0.252,-0.366 0.243,-0.359 0.235,-0.351C0.227,-0.342 0.22,-0.333 0.215,-0.322L0.215,-0.216C0.222,-0.198 0.232,-0.183 0.244,-0.169C0.256,-0.156 0.27,-0.145 0.285,-0.137C0.3,-0.129 0.316,-0.125 0.333,-0.125Z" style="fill:white;fill-rule:nonzero;"/>
        </g>
        <g transform="matrix(96,0,0,96,266.091,248.837)">
            <path d="M0.306,0.01C0.261,0.01 0.222,0.003 0.187,-0.011C0.152,-0.025 0.123,-0.045 0.099,-0.069C0.074,-0.093 0.056,-0.122 0.043,-0.154C0.03,-0.186 0.024,-0.219 0.024,-0.254C0.024,-0.304 0.035,-0.349 0.058,-0.39C0.08,-0.431 0.112,-0.464 0.154,-0.489C0.196,-0.514 0.247,-0.527 0.306,-0.527C0.365,-0.527 0.416,-0.515 0.458,-0.49C0.499,-0.465 0.531,-0.432 0.553,-0.392C0.575,-0.351 0.586,-0.307 0.586,-0.26C0.586,-0.251 0.586,-0.242 0.585,-0.233C0.584,-0.224 0.583,-0.217 0.582,-0.21L0.194,-0.21C0.196,-0.187 0.203,-0.168 0.214,-0.153C0.225,-0.137 0.239,-0.125 0.256,-0.117C0.273,-0.109 0.292,-0.105 0.311,-0.105C0.335,-0.105 0.358,-0.111 0.379,-0.122C0.4,-0.133 0.414,-0.149 0.422,-0.168L0.558,-0.13C0.545,-0.103 0.526,-0.079 0.501,-0.058C0.477,-0.037 0.449,-0.02 0.416,-0.008C0.383,0.004 0.346,0.01 0.306,0.01ZM0.19,-0.308L0.418,-0.308C0.415,-0.329 0.409,-0.347 0.399,-0.363C0.389,-0.378 0.376,-0.391 0.359,-0.399C0.342,-0.408 0.324,-0.412 0.304,-0.412C0.283,-0.412 0.265,-0.408 0.249,-0.399C0.232,-0.391 0.219,-0.378 0.209,-0.363C0.199,-0.347 0.193,-0.329 0.19,-0.308Z" style="fill:white;fill-rule:nonzero;"/>
        </g>
        <g transform="matrix(96,0,0,96,324.075,248.837)">
            <path d="M0.561,-0L0.401,-0L0.401,-0.289C0.401,-0.323 0.395,-0.348 0.382,-0.363C0.369,-0.378 0.351,-0.386 0.33,-0.386C0.315,-0.386 0.3,-0.382 0.285,-0.374C0.27,-0.367 0.256,-0.356 0.244,-0.343C0.231,-0.329 0.222,-0.314 0.215,-0.297L0.215,-0L0.055,-0L0.055,-0.519L0.199,-0.519L0.199,-0.43C0.212,-0.451 0.229,-0.468 0.249,-0.483C0.269,-0.497 0.292,-0.508 0.318,-0.516C0.344,-0.523 0.372,-0.527 0.403,-0.527C0.437,-0.527 0.465,-0.521 0.486,-0.509C0.506,-0.497 0.523,-0.481 0.534,-0.461C0.545,-0.441 0.552,-0.42 0.556,-0.397C0.559,-0.375 0.561,-0.353 0.561,-0.331L0.561,-0Z" style="fill:white;fill-rule:nonzero;"/>
        </g>
        <g transform="matrix(96,0,0,96,382.443,248.837)">
            <path d="M0.655,-0.182C0.655,-0.141 0.644,-0.108 0.623,-0.081C0.601,-0.054 0.572,-0.033 0.535,-0.02C0.498,-0.007 0.458,-0 0.414,-0L0.068,-0L0.068,-0.71L0.463,-0.71C0.496,-0.71 0.525,-0.701 0.55,-0.684C0.574,-0.666 0.593,-0.643 0.606,-0.615C0.619,-0.587 0.625,-0.558 0.625,-0.528C0.625,-0.495 0.616,-0.463 0.599,-0.433C0.582,-0.402 0.556,-0.379 0.523,-0.364C0.564,-0.352 0.596,-0.331 0.62,-0.3C0.643,-0.269 0.655,-0.23 0.655,-0.182ZM0.488,-0.215C0.488,-0.23 0.485,-0.244 0.479,-0.256C0.473,-0.267 0.465,-0.277 0.456,-0.283C0.446,-0.291 0.434,-0.294 0.421,-0.294L0.232,-0.294L0.232,-0.139L0.414,-0.139C0.428,-0.139 0.441,-0.142 0.452,-0.149C0.463,-0.156 0.471,-0.165 0.478,-0.176C0.485,-0.187 0.488,-0.2 0.488,-0.215ZM0.232,-0.57L0.232,-0.423L0.393,-0.423C0.405,-0.423 0.416,-0.426 0.427,-0.431C0.437,-0.436 0.445,-0.445 0.452,-0.456C0.459,-0.467 0.462,-0.48 0.462,-0.497C0.462,-0.513 0.459,-0.526 0.454,-0.537C0.448,-0.548 0.44,-0.556 0.431,-0.562C0.422,-0.567 0.411,-0.57 0.399,-0.57L0.232,-0.57Z" style="fill:white;fill-rule:nonzero;"/>
        </g>
        <g transform="matrix(96,0,0,96,448.107,248.837)">
            <path d="M0.305,0.01C0.26,0.01 0.221,0.003 0.186,-0.012C0.151,-0.026 0.121,-0.046 0.097,-0.071C0.073,-0.096 0.055,-0.124 0.043,-0.157C0.03,-0.189 0.024,-0.223 0.024,-0.258C0.024,-0.294 0.03,-0.328 0.043,-0.36C0.055,-0.393 0.073,-0.421 0.097,-0.446C0.121,-0.471 0.151,-0.491 0.186,-0.505C0.221,-0.52 0.26,-0.527 0.305,-0.527C0.35,-0.527 0.389,-0.52 0.424,-0.505C0.459,-0.491 0.488,-0.471 0.512,-0.446C0.536,-0.421 0.554,-0.393 0.567,-0.36C0.58,-0.328 0.586,-0.294 0.586,-0.258C0.586,-0.223 0.58,-0.189 0.567,-0.157C0.554,-0.124 0.536,-0.096 0.512,-0.071C0.488,-0.046 0.459,-0.026 0.424,-0.012C0.389,0.003 0.35,0.01 0.305,0.01ZM0.188,-0.258C0.188,-0.231 0.193,-0.208 0.203,-0.188C0.214,-0.168 0.228,-0.153 0.245,-0.141C0.262,-0.131 0.282,-0.125 0.305,-0.125C0.327,-0.125 0.347,-0.131 0.365,-0.142C0.382,-0.153 0.396,-0.169 0.406,-0.189C0.416,-0.209 0.421,-0.232 0.421,-0.258C0.421,-0.285 0.416,-0.308 0.406,-0.328C0.396,-0.348 0.382,-0.364 0.365,-0.375C0.347,-0.386 0.327,-0.391 0.305,-0.391C0.282,-0.391 0.262,-0.386 0.245,-0.375C0.228,-0.364 0.214,-0.348 0.203,-0.328C0.193,-0.308 0.188,-0.285 0.188,-0.258Z" style="fill:white;fill-rule:nonzero;"/>
        </g>
        <g transform="matrix(96,0,0,96,506.667,248.837)">
            <path d="M0.305,0.01C0.26,0.01 0.221,0.003 0.186,-0.012C0.151,-0.026 0.121,-0.046 0.097,-0.071C0.073,-0.096 0.055,-0.124 0.043,-0.157C0.03,-0.189 0.024,-0.223 0.024,-0.258C0.024,-0.294 0.03,-0.328 0.043,-0.36C0.055,-0.393 0.073,-0.421 0.097,-0.446C0.121,-0.471 0.151,-0.491 0.186,-0.505C0.221,-0.52 0.26,-0.527 0.305,-0.527C0.35,-0.527 0.389,-0.52 0.424,-0.505C0.459,-0.491 0.488,-0.471 0.512,-0.446C0.536,-0.421 0.554,-0.393 0.567,-0.36C0.58,-0.328 0.586,-0.294 0.586,-0.258C0.586,-0.223 0.58,-0.189 0.567,-0.157C0.554,-0.124 0.536,-0.096 0.512,-0.071C0.488,-0.046 0.459,-0.026 0.424,-0.012C0.389,0.003 0.35,0.01 0.305,0.01ZM0.188,-0.258C0.188,-0.231 0.193,-0.208 0.203,-0.188C0.214,-0.168 0.228,-0.153 0.245,-0.141C0.262,-0.131 0.282,-0.125 0.305,-0.125C0.327,-0.125 0.347,-0.131 0.365,-0.142C0.382,-0.153 0.396,-0.169 0.406,-0.189C0.416,-0.209 0.421,-0.232 0.421,-0.258C0.421,-0.285 0.416,-0.308 0.406,-0.328C0.396,-0.348 0.382,-0.364 0.365,-0.375C0.347,-0.386 0.327,-0.391 0.305,-0.391C0.282,-0.391 0.262,-0.386 0.245,-0.375C0.228,-0.364 0.214,-0.348 0.203,-0.328C0.193,-0.308 0.188,-0.285 0.188,-0.258Z" style="fill:white;fill-rule:nonzero;"/>
        </g>
        <g transform="matrix(96,0,0,96,565.227,248.837)">
            <path d="M0.408,-0L0.271,-0.208L0.215,-0.151L0.215,-0L0.055,-0L0.055,-0.73L0.215,-0.73L0.215,-0.304L0.393,-0.519L0.562,-0.519L0.373,-0.296L0.578,-0L0.408,-0Z" style="fill:white;fill-rule:nonzero;"/>
        </g>
        <g transform="matrix(96,0,0,96,619.371,248.837)">
            <path d="M0.256,0.01C0.211,0.01 0.168,0.003 0.125,-0.012C0.082,-0.027 0.046,-0.048 0.017,-0.077L0.072,-0.178C0.104,-0.155 0.135,-0.137 0.166,-0.125C0.196,-0.113 0.224,-0.107 0.251,-0.107C0.272,-0.107 0.288,-0.11 0.299,-0.116C0.31,-0.123 0.316,-0.132 0.316,-0.146C0.316,-0.156 0.313,-0.163 0.306,-0.169C0.299,-0.174 0.289,-0.18 0.276,-0.184C0.262,-0.189 0.245,-0.194 0.225,-0.199C0.185,-0.212 0.152,-0.225 0.125,-0.237C0.098,-0.25 0.078,-0.265 0.065,-0.283C0.052,-0.301 0.045,-0.325 0.045,-0.354C0.045,-0.388 0.054,-0.419 0.071,-0.445C0.089,-0.471 0.114,-0.491 0.147,-0.505C0.18,-0.52 0.219,-0.527 0.264,-0.527C0.3,-0.527 0.335,-0.521 0.37,-0.51C0.404,-0.499 0.436,-0.48 0.466,-0.453L0.404,-0.353C0.374,-0.374 0.347,-0.389 0.324,-0.398C0.301,-0.407 0.278,-0.412 0.256,-0.412C0.245,-0.412 0.234,-0.411 0.225,-0.408C0.216,-0.405 0.208,-0.401 0.203,-0.395C0.197,-0.389 0.194,-0.381 0.194,-0.371C0.194,-0.361 0.197,-0.353 0.203,-0.347C0.208,-0.341 0.217,-0.336 0.23,-0.332C0.242,-0.328 0.257,-0.323 0.276,-0.317C0.319,-0.304 0.355,-0.292 0.384,-0.279C0.413,-0.266 0.434,-0.251 0.449,-0.232C0.463,-0.213 0.47,-0.189 0.47,-0.158C0.47,-0.105 0.451,-0.064 0.412,-0.035C0.374,-0.005 0.322,0.01 0.256,0.01Z" style="fill:white;fill-rule:nonzero;"/>
        </g>
    </g>
</svg>
