<?xml version="1.0" encoding="UTF-8" standalone="no"?>
<!DOCTYPE svg PUBLIC "-//W3C//DTD SVG 1.1//EN" "http://www.w3.org/Graphics/SVG/1.1/DTD/svg11.dtd">
<svg width="100%" height="100%" viewBox="0 0 284 284" version="1.1" xmlns="http://www.w3.org/2000/svg" xmlns:xlink="http://www.w3.org/1999/xlink" xml:space="preserve" xmlns:serif="http://www.serif.com/" style="fill-rule:evenodd;clip-rule:evenodd;stroke-linejoin:round;stroke-miterlimit:2;">
    <g transform="matrix(2.73499,0,0,3.15839,-84.1079,-107.151)">
        <path d="M134.396,78.801C134.396,54.034 111.176,33.926 82.574,33.926L30.753,33.926L30.753,78.801C30.753,103.568 53.973,123.676 82.574,123.676L134.396,123.676L134.396,78.801ZM118.85,78.801L118.85,110.213C118.85,110.213 82.574,110.213 82.574,110.213C62.554,110.213 46.299,96.138 46.299,78.801L46.299,47.388C46.299,47.388 82.574,47.388 82.574,47.388C102.595,47.388 118.85,61.464 118.85,78.801Z"/>
    </g>
</svg>
