<?xml version="1.0" encoding="UTF-8" standalone="no"?>
<!DOCTYPE svg PUBLIC "-//W3C//DTD SVG 1.1//EN" "http://www.w3.org/Graphics/SVG/1.1/DTD/svg11.dtd">
<svg width="100%" height="100%" viewBox="0 0 48 48" version="1.1" xmlns="http://www.w3.org/2000/svg" xmlns:xlink="http://www.w3.org/1999/xlink" xml:space="preserve" xmlns:serif="http://www.serif.com/" style="fill-rule:evenodd;clip-rule:evenodd;">
    <g id="Layer-1" serif:id="Layer 1">
        <g id="g6707" transform="matrix(0.0237447,0,0,0.0208676,44.6818,33.2786)">
            <rect id="rect6709" x="-1559.25" y="-150.697" width="1339.63" height="478.357" style="fill:url(#_Linear1);"/>
            <path id="path6711" d="M-219.619,-150.68L-219.619,327.65C-76.745,328.551 125.781,220.481 125.781,88.454C125.781,-43.572 -33.655,-150.68 -219.619,-150.68Z" style="fill:url(#_Radial2);fill-rule:nonzero;"/>
            <path id="path6713" d="M-1559.25,-150.68L-1559.25,327.65C-1702.13,328.551 -1904.65,220.481 -1904.65,88.454C-1904.65,-43.572 -1745.22,-150.68 -1559.25,-150.68Z" style="fill:url(#_Radial3);fill-rule:nonzero;"/>
        </g>
        <path id="path1943" d="M6.632,11.549L2.379,31.036C1.698,34.157 3.187,36.15 5.34,36.15L42.591,36.15C44.744,36.15 46.246,33.815 45.498,31.09L40.115,11.496C39.966,10.956 39.278,10.526 38.715,10.527L8.031,10.581C7.204,10.582 6.793,10.813 6.632,11.549Z" style="fill:url(#_Linear4);stroke:rgb(130,130,130);stroke-width:1px;"/>
        <path id="path2850" d="M36.855,13.732L28.536,13.732L29.312,18.304L37.696,18.304L36.855,13.732Z" style="fill-opacity:0.17;"/>
        <path id="path2852" d="M38.714,21.357L23.714,21.357" style="fill:none;stroke:black;stroke-opacity:0.1;stroke-width:1px;stroke-linecap:round;"/>
        <path id="path2854" d="M39.214,23.357L23.714,23.357" style="fill:none;stroke:black;stroke-opacity:0.1;stroke-width:1px;stroke-linecap:round;"/>
        <path id="path2856" d="M39.839,25.357L23.714,25.357" style="fill:none;stroke:black;stroke-opacity:0.12;stroke-width:1px;stroke-linecap:round;"/>
        <path id="path2858" d="M40.41,27.357L23.706,27.357" style="fill:none;stroke:black;stroke-opacity:0.15;stroke-width:0.99px;stroke-linecap:round;"/>
        <path id="path2860" d="M41.035,29.357L23.706,29.357" style="fill:none;stroke:black;stroke-opacity:0.15;stroke-width:0.99px;stroke-linecap:round;"/>
        <path id="path2862" d="M41.785,31.357L23.706,31.357" style="fill:none;stroke:black;stroke-opacity:0.15;stroke-width:0.99px;stroke-linecap:round;"/>
        <path id="path2864" d="M40.853,33.357L23.701,33.357" style="fill:none;stroke:black;stroke-opacity:0.11;stroke-width:0.99px;stroke-linecap:round;"/>
        <g id="g2882">
        </g>
        <path id="path2924" d="M21.125,21.375L21.125,33.375L8.187,33.375C7.056,33.375 6.125,32.188 6.687,30.5L8.625,21.375L21.125,21.375Z" style="fill:url(#_Linear5);stroke:rgb(158,158,158);stroke-width:1px;"/>
        <path id="path2934" d="M20.188,31.438L7.688,31.438" style="fill:none;stroke:white;stroke-opacity:0.31;stroke-width:1px;stroke-linecap:round;stroke-linejoin:round;"/>
        <path id="path2937" d="M20.188,31.437L7.688,31.437" style="fill:none;stroke:white;stroke-opacity:0.31;stroke-width:2.45px;stroke-linecap:round;stroke-linejoin:round;"/>
        <path id="path2939" d="M7.433,12.29L3.453,31.055C3.011,33.136 3.134,35.141 5.43,35.141L42.123,35.141C44.357,35.141 45.079,33.295 44.301,30.48L39.28,12.303C39.142,11.806 38.821,11.472 38.303,11.473L8.472,11.522C7.835,11.524 7.546,11.756 7.433,12.29Z" style="fill:none;stroke:url(#_Linear6);stroke-width:0.98px;"/>
        <g id="path2963" transform="matrix(1,0,0,1,-0.15625,0.125)">
            <path d="M6.219,31.438C6.219,31.969 5.781,32.406 5.25,32.406C4.719,32.406 4.281,31.969 4.281,31.438C4.281,30.906 4.719,30.469 5.25,30.469C5.781,30.469 6.219,30.906 6.219,31.438Z" style="fill:white;fill-opacity:0.64;fill-rule:nonzero;"/>
        </g>
    </g>
    <defs>
        <linearGradient id="_Linear1" x1="0" y1="0" x2="1" y2="0" gradientUnits="userSpaceOnUse" gradientTransform="matrix(2.92909e-14,478.357,-478.357,2.92909e-14,-1051.94,-150.697)"><stop offset="0" style="stop-color:black;stop-opacity:0"/><stop offset="0.5" style="stop-color:black;stop-opacity:0.4"/><stop offset="1" style="stop-color:black;stop-opacity:0"/></linearGradient>
        <radialGradient id="_Radial2" cx="0" cy="0" r="1" gradientUnits="userSpaceOnUse" gradientTransform="matrix(325,0,0,230.737,-211.146,85.6679)"><stop offset="0" style="stop-color:black;stop-opacity:0.4"/><stop offset="1" style="stop-color:black;stop-opacity:0"/></radialGradient>
        <radialGradient id="_Radial3" cx="0" cy="0" r="1" gradientUnits="userSpaceOnUse" gradientTransform="matrix(-325,0,0,230.737,-1567.72,85.6679)"><stop offset="0" style="stop-color:black;stop-opacity:0.4"/><stop offset="1" style="stop-color:black;stop-opacity:0"/></radialGradient>
        <linearGradient id="_Linear4" x1="0" y1="0" x2="1" y2="0" gradientUnits="userSpaceOnUse" gradientTransform="matrix(-0.0261367,-23.8955,23.8955,-0.0261367,23.1044,35.7142)"><stop offset="0" style="stop-color:rgb(145,145,145);stop-opacity:1"/><stop offset="0.2" style="stop-color:rgb(233,233,233);stop-opacity:1"/><stop offset="0.24" style="stop-color:rgb(243,243,243);stop-opacity:1"/><stop offset="0.3" style="stop-color:rgb(230,230,230);stop-opacity:1"/><stop offset="1" style="stop-color:rgb(248,248,248);stop-opacity:1"/></linearGradient>
        <linearGradient id="_Linear5" x1="0" y1="0" x2="1" y2="0" gradientUnits="userSpaceOnUse" gradientTransform="matrix(-0.0186627,-11.25,11.25,-0.0186627,14.3937,32.9375)"><stop offset="0" style="stop-color:rgb(120,120,120);stop-opacity:1"/><stop offset="1" style="stop-color:rgb(208,208,208);stop-opacity:1"/></linearGradient>
        <linearGradient id="_Linear6" x1="0" y1="0" x2="1" y2="0" gradientUnits="userSpaceOnUse" gradientTransform="matrix(46.8356,45.25,-45.25,46.8356,6.25905,9.4322)"><stop offset="0" style="stop-color:white;stop-opacity:1"/><stop offset="1" style="stop-color:white;stop-opacity:0"/></linearGradient>
    </defs>
</svg>
